<svg xmlns="http://www.w3.org/2000/svg" width="256" height="256" viewBox="0 0 256 256"><circle cx="127.7" cy="127.7" r="85.4" fill="none" stroke="#115f51" stroke-linecap="round" stroke-linejoin="round" stroke-width="3.18"/><g mask="url(#b)" opacity=".3" style="isolation:isolate"><circle cx="155.6" cy="158.9" r="94.1" fill="#115f51"/></g><path fill="#fff" d="M171.5 146.6h-.9a2.5 2.5 0 0 1-1.5-3.2 40.1 40.1 0 0 0-76-25.7 2.5 2.5 0 0 1-3.2 1.5 2.3 2.3 0 0 1-1.5-3.1 45.1 45.1 0 1 1 85.4 28.9 2.5 2.5 0 0 1-2.3 1.6z"/><path d="M169.3 149.6a2.9 2.9 0 0 0-3.6 1.7c-2.1 5.9-6 10.1-9.7 12a8.3 8.3 0 0 1-4.6 1.1c-3.5-.3-4.9-3.9-5.4-6.9-1.2-6.9-6-12-11.7-12.3-3.4-.2-9.2 1.2-14.1 11.1l-.6-2.8c3.8-5 7.4-12 10.4-21.5s2.6-18.8-1.8-22.1a6.5 6.5 0 0 0-7.7 0c-6.5 4.4-10.5 18.8-6.8 42-4.1 4.7-8.3 6.5-11.7 5.9a8.9 8.9 0 0 1-4.5-2.8 19.3 19.3 0 0 1-4.2-7h.3l5.3-1.6a2.7 2.7 0 0 0 2.2-3.2 2.8 2.8 0 0 0-3.3-2.2h-.1l-5.8 1.7a62.9 62.9 0 0 1-.7-16.2 7.6 7.6 0 0 1 .1-1.5 2.8 2.8 0 0 0-2.6-3 2.6 2.6 0 0 0-2.6 1.5 20 20 0 0 0-.4 2.4 72.9 72.9 0 0 0 .8 18.1 2 2 0 0 1 .1.7c-2.1.9-4.1 1.9-6.1 3a2.8 2.8 0 0 0 1.4 5.1 2.8 2.8 0 0 0 1.5-.4 35.4 35.4 0 0 1 4.8-2.3 24.1 24.1 0 0 0 5.5 9.2 13.9 13.9 0 0 0 7.2 4 13.4 13.4 0 0 0 4 .1 18.4 18.4 0 0 0 10.1-4.8c.5 2.6 1.1 5.2 1.8 7.9a2.8 2.8 0 0 0 2.6 2.1 2.7 2.7 0 0 0 2.7-2c3.1-10.1 7.5-16.1 11.9-15.8s5.8 3.5 6.5 7.8c1.1 6.2 4 9 6.6 10.4a12.7 12.7 0 0 0 3.8 1.1h1a14.7 14.7 0 0 0 7.1-2.1c5-2.7 9.5-8 12-14.7a2.9 2.9 0 0 0-1.7-3.7zm-50.9-4.4c-2-18.1 1.5-28.2 5.2-30.7a1.2 1.2 0 0 1 .9-.3h.4c1.5 1.2 2.8 6.5-.1 16a72.8 72.8 0 0 1-6.4 15z"/></svg>